PathFileType	4	(X/Y/Z)	C:/Users/beibeiliu/ov580/test_trc/User2\sequence.34_training_dense_right.trc
DataRate	CameraRate	NumFrames	NumMarkers	Units	OrigDataRate	OrigDataStartFrame	OrigNumFrames
120	120	20	19	mm	120	1	86
Frame#	Time	ThumbCMC			ThumbMCP			ThumbIP			ThumbTip			IndexMCP			IndexPIP			IndexTip			MiddleMCP			MiddlePIP			MiddleTip			RingMCP			RingPIP			RingTip			PinkyMCP			PinkyPIP			PinkyTip			BackHand1			BackHand2			BackHand3	
		X0	Y0	Z0	X1	Y1	Z1	X2	Y2	Z2	X3	Y3	Z3	X4	Y4	Z4	X5	Y5	Z5	X6	Y6	Z6	X7	Y7	Z7	X8	Y8	Z8	X9	Y9	Z9	X10	Y10	Z10	X11	Y11	Z11	X12	Y12	Z12	X13	Y13	Z13	X14	Y14	Z14	X15	Y15	Z15	X16	Y16	Z16	X17	Y17	Z17	X18	Y18	Z18	
0	0	74.5159	13.8733	-30.285	54.4674	21.177	-62.1072	56.7681	15.6737	-99.0228	66.4578	5.54051	-121.672	89.1119	6.5204	-111.415	75.6941	-24.9927	-107.801	70.8531	-21.9265	-74.8975	107.605	-10.3737	-110.406	86.6036	-38.8915	-99.8785	88.7018	-26.4762	-60.2621	116.267	-28.2184	-101.302	98.8363	-47.0143	-82.9319	105.961	-24.4608	-53.587	128.07	-36.9144	-90.3343	109.372	-52.5623	-67.5802	117.843	-32.7709	-43.8436	140.131	9.89514	-56.8757	138.786	12.8083	-19.1459	108.779	28.2254	-36.8844	
1	0.00833333	67.0049	10.9645	-32.3855	48.0731	10.2929	-55.6896	45.1904	-1.43359	-93.5392	43.4755	-14.2384	-115.07	72.7697	-13.2857	-105.715	54.1327	-40.7408	-96.2746	60.9361	-27.0511	-62.7564	87.0765	-29.0549	-103.507	64.4814	-53.2345	-82.6026	72.5824	-31.2739	-50.3042	93.3801	-48.6662	-91.9092	81.7383	-63.5215	-69.1426	87.9432	-32.8282	-45.2029	108.935	-55.5327	-79.3856	88.6269	-61.9925	-52.4486	99.0386	-34.8513	-37.2955	129.104	-6.9507	-58.6564	132.672	2.19419	-22.7256	102.754	19.8202	-42.9547	
2	0.0166667	64.4255	18.2915	-24.9622	44.0789	15.535	-52.9041	31.2204	0.970757	-85.2466	27.5036	-15.9656	-102.8	54.5162	-21.1819	-97.302	30.3939	-38.6152	-84.6023	43.5186	-25.1091	-52.6093	60.4048	-42.4063	-93.2893	38.5027	-51.8961	-67.0596	56.805	-26.8873	-39.9128	69.3025	-59.0138	-77.511	52.032	-61.0063	-54.0808	69.7248	-34.0535	-34.5285	79.7047	-66.6002	-66.3924	64.0617	-62.6824	-38.2215	77.9151	-38.2513	-25.7061	116.646	-23.1731	-58.3407	128.992	-10.9546	-27.1569	102.034	12.1593	-43.7309	
3	0.025	67.8848	30.1005	-26.6683	43.6444	35.0417	-47.4275	22.3329	17.0949	-76.0485	7.27658	1.48035	-89.9309	33.4799	-10.3924	-86.1158	7.3352	-17.9395	-63.291	30.4863	-6.8107	-39.2444	34.7927	-37.2707	-77.1083	13.9501	-34.1555	-45.6213	42.1621	-14.6382	-27.2087	34.2252	-49.6083	-60.7803	24.3687	-41.4317	-30.956	52.4126	-20.9523	-22.9298	46.4597	-59.9298	-48.9509	35.8199	-47.4249	-21.7468	63.8093	-27.0051	-12.7	96.4422	-29.849	-54.6792	116.193	-20.0897	-23.4812	94.0251	9.27305	-47.6409	
4	0.0333333	76.6376	38.1805	-29.6036	53.8408	48.6491	-46.9798	23.3664	41.7211	-69.0851	0.647417	28.9886	-78.1489	15.0848	7.41728	-73.9481	-5.71469	16.0116	-50.9172	24.4484	18.1605	-29.3957	13.5167	-10.7188	-64.3782	-1.61607	2.63838	-29.9637	31.9228	11.1247	-16.2459	12.2359	-24.4689	-44.9166	7.36811	-6.43491	-15.978	43.4865	-1.44159	-12.494	18.0076	-39.0632	-30.4587	18.432	-15.3402	-2.73187	51.1347	-12.5482	-2.90177	74.0385	-31.6211	-43.9831	100.89	-30.6611	-20.8682	89.8476	0.737494	-42.8096	
5	0.0416667	85.6446	39.971	-33.8342	68.0353	54.8006	-50.7272	39.1536	60.7425	-67.9299	12.2114	56.8415	-75.7113	16.3484	34.0233	-70.5107	0.907991	46.6528	-44.381	35.2314	47.7223	-29.2541	5.55791	15.4718	-55.4619	-1.79456	36.6215	-24.8116	35.5182	34.9641	-13.3819	0.377289	10.736	-34.7018	4.36872	26.2861	-7.96738	39.778	21.2614	-9.05124	0.879513	-3.95611	-17.5503	12.3165	17.3048	2.61979	47.635	5.64341	4.21157	51.8249	-26.3619	-35.8303	81.5695	-27.5317	-17.5419	80.1078	-0.0370166	-44.1134	
6	0.05	95.9652	38.0908	-35.9639	86.8319	57.425	-59.7972	57.274	69.5496	-81.2528	31.2196	74.6197	-86.692	27.3135	50.9255	-73.3897	21.5896	75.8522	-51.8242	47.8287	60.0986	-32.6664	13.3334	42.4628	-58.2586	15.7554	66.7834	-30.3995	50.2397	50.0505	-18.6755	3.9885	37.9793	-33.1105	16.4	55.466	-10.1212	47.1935	37.0066	-8.45542	4.88392	25.989	-19.2347	22.1984	44.8387	4.66267	49.2385	22.6226	2.90286	47.7975	-11.5299	-32.1999	74.8501	-19.3736	-12.4476	79.9798	3.8617	-43.3203	
7	0.0583333	112.717	35.1682	-36.9383	104.633	51.4808	-65.7613	81.3741	66.1522	-89.9998	55.8093	75.157	-100.662	47.7821	59.4441	-84.5652	45.3989	84.7754	-62.4057	70.8713	67.1382	-43.1772	29.3802	57.1759	-65.0578	39.6515	81.825	-41.5435	67.5516	53.2451	-27.461	19.7732	57.8615	-41.5773	35.5079	73.8929	-20.2348	61.6089	50.3002	-17.8165	16.4466	46.6879	-27.3608	36.2285	66.3478	-8.67223	58.1556	38.7667	-0.957806	47.9685	0.2077	-35.8938	74.4338	-13.2146	-8.59895	89.1553	4.19776	-42.6791	
8	0.0666667	120.749	28.5878	-41.7271	122.295	41.2387	-70.5434	104.159	53.2222	-97.0849	83.7865	64.4224	-114.256	67.5735	52.886	-95.6598	68.4444	82.0935	-82.3197	86.1251	67.5851	-56.1436	48.511	54.2119	-79.513	61.3714	81.6392	-57.1927	82.0839	58.4836	-40.1647	39.2221	57.3369	-61.031	53.0602	79.2862	-42.4861	74.7806	49.6862	-28.4788	30.9307	55.3474	-41.9712	54.5703	72.1289	-25.4087	66.6426	46.7552	-11.1843	54.5046	1.64214	-36.5258	74.7199	-8.79562	-9.15824	96.3977	0.457954	-40.2459	
9	0.075	138.448	18.7757	-41.9859	137.238	27.7973	-75.2562	123.872	34.1767	-105.913	104.099	40.5274	-127.178	85.1363	32.0644	-107.273	86.9791	62.6457	-103.635	103.422	52.6386	-70.6669	68.2967	38.8708	-97.6616	76.8068	67.7274	-77.115	97.1852	47.5361	-54.1788	53.8592	42.5976	-77.7135	66.9864	67.5652	-63.6227	87.4368	43.1652	-43.6486	42.6145	44.1291	-58.8143	65.1739	64.4438	-44.3928	81.6947	40.7161	-29.1315	73.1638	-5.96432	-43.0566	84.1792	-13.3633	-13.6804	108.498	-11.3199	-40.8633	
10	0.0833333	148.093	7.12151	-46.2056	153.296	9.93511	-81.0574	143.47	11.3029	-114.65	123.45	11.3778	-135.234	108.828	0.83091	-115.707	103.638	35.9995	-117.619	113.634	35.9555	-84.7353	85.2024	9.80665	-108.172	85.8832	42.6161	-97.4158	107.79	29.0314	-66.4547	68.4987	19.4561	-93.2313	78.2681	45.1973	-81.3683	98.9494	27.1668	-56.2629	56.5448	19.797	-74.6327	75.4934	44.3672	-64.2114	93.5539	24.2182	-41.2721	90.2428	-24.0384	-46.4532	100.968	-26.0819	-13.6578	125.875	-21.9837	-41.7277	
11	0.0916667	161.788	5.15497	-44.5956	163.885	3.5485	-77.4303	158.169	-3.08638	-116.694	143.754	-7.29075	-140.028	130.361	-18.2181	-121.011	117.261	11.245	-127.536	129.247	19.9699	-94.2206	108.303	-15.4932	-114.141	101.054	21.0961	-108.766	122.515	15.9009	-75.7932	85.9375	-5.68877	-103.162	88.8243	23.023	-93.2031	111.52	9.99112	-65.2288	76.1416	-2.71531	-88.9072	86.7451	25.468	-74.9862	101.948	10.9197	-50.0293	105.208	-40.4488	-53.2288	115.165	-34.9633	-17.4345	145.248	-30.4345	-46.2211	
12	0.1	170.205	13.1181	-44.6393	173.737	13.7695	-76.7757	173.085	10.2627	-111.176	162.651	1.25115	-136.336	152.073	-19.348	-124.175	132.194	4.64309	-131.069	138.302	20.0031	-102.083	127.778	-18.7034	-120.844	111.22	11.3254	-109.936	128.823	9.34343	-77.1486	105.275	-16.7563	-109.077	98.2073	11.0374	-95.4043	121.846	4.49518	-68.6518	90.2827	-19.4515	-95.1495	94.4636	10.4466	-82.6312	111.901	0.862429	-56.5605	130.457	-47.3196	-55.0146	132.017	-38.6951	-20.7825	163.461	-27.0379	-41.5021	
13	0.108333	167.485	25.233	-42.8642	175.193	34.6783	-73.7435	176.732	31.2008	-107.498	169.311	24.1563	-132.62	164.866	-4.56004	-118.693	140.342	14.0721	-129.9	143.067	28.0554	-94.2524	141.587	-13.2748	-117.035	117.389	13.5786	-112.656	133.662	14.0067	-73.0765	117.426	-14.606	-110.563	108.218	10.5272	-99.8537	122.036	8.14368	-68.142	105.998	-24.9986	-96.4387	98.2488	5.80441	-80.6908	115.863	0.875058	-58.0233	149.238	-38.089	-54.2012	147.385	-33.8642	-23.1158	175.283	-11.0883	-40.0491	
14	0.116667	165.635	41.06	-39.2932	173.056	56.3182	-67.9301	174.414	53.0061	-103.106	168.34	40.2619	-131.598	168.009	17.2056	-120.731	139.183	30.7042	-123.523	140.938	40.8987	-90.9798	148.28	6.72987	-116.394	118.143	22.5214	-109.474	132.757	25.0139	-70.0876	124.857	-6.15787	-109.031	106.834	16.5108	-93.6361	126.985	13.8235	-63.3504	115.985	-16.738	-96.3956	96.9274	6.37313	-80.3432	119.154	2.07333	-51.9925	156.967	-28.346	-56.2824	156.787	-22.2341	-21.5276	177.271	4.52342	-42.3195	
15	0.125	161.173	52.6348	-35.7766	165.233	66.7494	-63.5555	167.573	68.4149	-98.8975	161.57	57.7823	-124.595	162.51	33.9925	-117.364	132.235	46.5766	-117.87	134.586	52.3548	-84.1915	142.643	19.3017	-115.071	114.262	36.3168	-102.658	126.218	36.3394	-67.05	125.592	7.98169	-107.928	101.157	19.4579	-93.1625	121.204	20.0952	-59.2993	115.568	-8.6466	-96.0769	96.0957	10.8076	-77.0542	116.557	8.14601	-49.9787	159.501	-19.036	-55.4293	157.673	-17.2008	-23.3972	174.191	16.7769	-37.4124	
16	0.133333	148.266	58.7729	-30.0222	154.133	79.0242	-58.4092	155.213	76.8393	-94.9189	150.517	69.7612	-120.758	151.698	49.1653	-113.183	121.073	57.256	-112.218	123.901	54.9238	-74.9473	140.299	29.9213	-110.778	106.629	40.4917	-100.794	116.647	36.6723	-62.5298	125.457	13.3941	-103.342	98.1059	25.4693	-86.7793	118.314	26.1565	-55.5557	116.556	-4.73366	-93.8601	95.022	14.1695	-71.9491	115.541	11.6535	-46.7832	161.183	-5.96477	-53.672	157.98	-7.77976	-18.611	168.204	27.9098	-33.5855	
17	0.141667	134.235	68.5345	-25.085	133.496	85.2535	-53.0912	132.513	92.7961	-86.2279	130.736	85.0338	-112.012	136.442	60.6646	-107.847	105.081	58.0266	-105.375	108.297	56.2514	-70.6947	128.905	38.2687	-107.915	95.7952	38.4282	-93.6232	108.27	41.9816	-57.4594	119.513	22.0938	-102.122	92.9632	21.4121	-81.4594	111.869	28.2064	-54.1947	116.22	3.80998	-93.2571	93.0121	10.5936	-69.5619	110.089	9.55883	-42.8539	162.889	7.41426	-53.0752	159.857	3.86063	-15.9059	160.294	44.7159	-29.9552	
18	0.15	111.19	66.7068	-16.4189	106.076	84.761	-46.8224	101.687	93.4324	-79.5908	104.111	88.1447	-108.688	117.523	69.7585	-100.521	89.9302	53.2961	-102.574	96.1564	46.9988	-64.2134	117.962	45.5755	-105.786	90.3706	29.4166	-95.1969	103.762	31.5236	-54.8109	120.577	19.2655	-100.417	91.8845	12.9819	-85.4213	109.299	22.341	-52.3663	123.794	3.94603	-92.9943	96.0376	1.77624	-69.8277	111.814	4.25282	-45.4167	160.534	26.1914	-52.9272	157.572	17.2983	-17.6175	148.348	51.8508	-27.4995	
19	0.158333	97.8878	55.5268	-17.7503	88.8336	70.6214	-44.6637	82.8216	78.3223	-75.5366	84.2653	77.4704	-105.329	102.915	63.3494	-96.5375	78.1305	40.9631	-100.439	82.0574	37.4217	-65.3882	111.111	36.531	-104.969	85.6651	16.9356	-91.8504	98.6616	24.737	-53.675	113.124	15.0813	-101.331	90.861	3.92662	-83.0392	109.345	15.9239	-51.7454	125.229	3.03082	-92.7339	100.301	-9.93558	-73.0134	114.695	3.06798	-43.8713	154.91	32.2168	-54.888	157.755	20.7088	-21.0456	136.821	50.2043	-24.9256	
